<svg xmlns = "http://www.w3.org/2000/svg" width = "1000" height = "1000">
<g>
<polygon points = "477.952, 522.148 397.320, 222.302 207.141, 340.641 203.660, 350.771 408.274, 550.102 428.645, 547.967 "
fill = "white" stroke = "black"/>
</g>
<g>
<polygon points = "397.320, 222.302 477.607, 0.000 0.000, 0.000 -0.000, 146.620 207.141, 340.641 "
fill = "white" stroke = "black"/>
</g>
<g>
<polygon points = "575.283, 1000.000 405.249, 753.725 -0.000, 758.485 0.000, 1000.000 "
fill = "white" stroke = "black"/>
</g>
<g>
<polygon points = "405.249, 753.725 428.645, 547.967 408.274, 550.102 63.566, 658.890 0.000, 724.185 0.000, 758.485 "
fill = "white" stroke = "black"/>
</g>
<g>
<polygon points = "-0.000, 292.522 125.050, 467.747 203.660, 350.771 207.141, 340.641 -0.000, 146.620 "
fill = "white" stroke = "black"/>
</g>
<g>
<polygon points = "1000.000, 273.993 663.354, 566.849 687.621, 1000.000 1000.000, 1000.000 "
fill = "white" stroke = "black"/>
</g>
<g>
<polygon points = "125.050, 467.747 63.566, 658.890 408.274, 550.102 203.660, 350.771 "
fill = "white" stroke = "black"/>
</g>
<g>
<polygon points = "63.566, 658.890 125.050, 467.747 -0.000, 292.522 -0.000, 724.185 "
fill = "white" stroke = "black"/>
</g>
<g>
<polygon points = "663.354, 566.849 477.952, 522.148 428.645, 547.967 405.249, 753.725 575.283, 1000.000 687.621, 1000.000 "
fill = "white" stroke = "black"/>
</g>
<g>
<polygon points = "477.952, 522.148 663.354, 566.849 1000.000, 273.993 1000.000, 0.000 477.607, 0.000 397.320, 222.302 "
fill = "white" stroke = "black"/>
</g>
</svg>
