<svg xmlns = "http://www.w3.org/2000/svg" width = "1000" height = "1000">
<g>
<polygon points = "404.507, 234.914 407.867, 220.497 292.210, 227.391 189.211, 330.494 181.049, 362.227 235.604, 415.374 "
fill = "white" stroke = "black"/>
</g>
<g>
<polygon points = "140.831, 139.172 219.235, 149.100 223.402, 147.262 226.040, 143.632 210.604, 91.255 166.770, 61.975 123.307, 71.036 115.459, 84.758 "
fill = "white" stroke = "black"/>
</g>
<g>
<polygon points = "378.186, 868.555 362.034, 825.098 241.837, 869.576 306.123, 953.813 313.120, 959.917 327.677, 954.179 "
fill = "white" stroke = "black"/>
</g>
<g>
<polygon points = "276.752, 651.421 220.862, 646.174 189.483, 692.541 235.119, 746.058 367.256, 794.483 391.020, 762.607 "
fill = "white" stroke = "black"/>
</g>
<g>
<polygon points = "34.077, 147.614 0.000, 156.591 0.000, 231.351 9.500, 244.663 78.934, 206.490 83.749, 194.194 78.000, 176.209 "
fill = "white" stroke = "black"/>
</g>
<g>
<polygon points = "908.943, 777.449 925.701, 874.031 949.677, 870.220 966.054, 854.144 976.587, 736.985 955.024, 729.617 "
fill = "white" stroke = "black"/>
</g>
<g>
<polygon points = "217.651, 638.200 249.592, 497.796 235.604, 415.374 181.049, 362.227 146.791, 400.770 187.234, 604.896 "
fill = "white" stroke = "black"/>
</g>
<g>
<polygon points = "52.202, 372.309 54.162, 369.953 9.500, 244.663 0.000, 231.351 0.000, 379.124 "
fill = "white" stroke = "black"/>
</g>
<g>
<polygon points = "391.992, 762.659 573.435, 884.600 654.223, 893.176 537.792, 729.516 "
fill = "white" stroke = "black"/>
</g>
<g>
<polygon points = "507.663, 236.693 572.222, 320.431 677.707, 213.873 677.699, 89.593 643.859, 59.614 "
fill = "white" stroke = "black"/>
</g>
<g>
<polygon points = "962.481, 504.451 957.218, 368.157 946.798, 360.127 903.857, 415.772 880.378, 593.469 962.294, 505.037 "
fill = "white" stroke = "black"/>
</g>
<g>
<polygon points = "772.046, 0.000 786.413, 74.205 825.143, 103.155 876.490, 6.530 874.215, 0.000 "
fill = "white" stroke = "black"/>
</g>
<g>
<polygon points = "334.424, 123.485 427.421, 192.420 487.139, 83.947 386.532, 59.869 372.194, 61.294 363.238, 68.074 "
fill = "white" stroke = "black"/>
</g>
<g>
<polygon points = "848.099, 271.879 853.476, 283.195 920.214, 268.187 957.146, 175.326 898.151, 141.553 865.561, 143.693 837.823, 160.094 "
fill = "white" stroke = "black"/>
</g>
<g>
<polygon points = "969.915, 355.580 1000.000, 364.456 1000.000, 167.319 980.384, 175.274 "
fill = "white" stroke = "black"/>
</g>
<g>
<polygon points = "0.000, 975.654 27.378, 885.856 25.148, 810.380 0.000, 792.219 "
fill = "white" stroke = "black"/>
</g>
<g>
<polygon points = "963.327, 53.439 1000.000, 74.697 1000.000, 0.000 950.602, 0.000 "
fill = "white" stroke = "black"/>
</g>
<g>
<polygon points = "898.151, 141.553 910.503, 78.644 876.490, 6.530 825.143, 103.155 865.561, 143.693 "
fill = "white" stroke = "black"/>
</g>
<g>
<polygon points = "152.492, 243.309 83.749, 194.194 78.934, 206.490 64.504, 367.433 77.864, 370.266 "
fill = "white" stroke = "black"/>
</g>
<g>
<polygon points = "427.409, 202.774 507.663, 236.693 643.859, 59.614 639.225, 49.440 504.612, 74.015 487.139, 83.947 427.421, 192.420 "
fill = "white" stroke = "black"/>
</g>
<g>
<polygon points = "251.576, 70.868 259.062, 0.000 236.331, 0.000 171.065, 37.989 166.770, 61.975 210.604, 91.255 "
fill = "white" stroke = "black"/>
</g>
<g>
<polygon points = "189.483, 692.541 146.534, 728.219 140.227, 835.581 210.578, 855.790 235.119, 746.058 "
fill = "white" stroke = "black"/>
</g>
<g>
<polygon points = "907.211, 963.760 1000.000, 980.001 1000.000, 954.523 985.237, 943.092 908.189, 936.026 902.652, 945.739 "
fill = "white" stroke = "black"/>
</g>
<g>
<polygon points = "63.022, 575.534 58.470, 640.600 88.949, 657.942 185.050, 604.273 86.842, 535.336 86.165, 535.492 "
fill = "white" stroke = "black"/>
</g>
<g>
<polygon points = "458.270, 980.838 442.426, 888.546 378.186, 868.555 327.677, 954.179 "
fill = "white" stroke = "black"/>
</g>
<g>
<polygon points = "642.784, 41.556 639.225, 49.440 643.859, 59.614 677.699, 89.593 837.823, 160.094 865.561, 143.693 825.143, 103.155 786.413, 74.205 "
fill = "white" stroke = "black"/>
</g>
<g>
<polygon points = "796.276, 857.831 886.379, 764.956 833.103, 623.981 791.075, 669.205 788.339, 805.338 791.802, 853.942 "
fill = "white" stroke = "black"/>
</g>
<g>
<polygon points = "1000.000, 485.584 962.481, 504.451 962.294, 505.037 971.342, 621.910 1000.000, 657.395 "
fill = "white" stroke = "black"/>
</g>
<g>
<polygon points = "971.342, 621.910 907.751, 644.021 955.024, 729.617 976.587, 736.985 1000.000, 720.448 1000.000, 657.395 "
fill = "white" stroke = "black"/>
</g>
<g>
<polygon points = "145.067, 728.435 129.466, 725.702 21.703, 759.018 0.000, 779.755 0.000, 792.219 25.148, 810.380 54.837, 826.662 "
fill = "white" stroke = "black"/>
</g>
<g>
<polygon points = "907.753, 890.593 810.262, 879.365 807.065, 912.473 834.208, 957.166 902.652, 945.739 908.189, 936.026 "
fill = "white" stroke = "black"/>
</g>
<g>
<polygon points = "58.470, 640.600 50.354, 648.417 21.703, 759.018 129.466, 725.702 88.949, 657.942 "
fill = "white" stroke = "black"/>
</g>
<g>
<polygon points = "185.050, 604.273 187.234, 604.896 146.791, 400.770 121.406, 400.716 86.842, 535.336 "
fill = "white" stroke = "black"/>
</g>
<g>
<polygon points = "910.503, 78.644 961.845, 55.423 963.327, 53.439 950.602, 0.000 874.215, 0.000 876.490, 6.530 "
fill = "white" stroke = "black"/>
</g>
<g>
<polygon points = "439.627, 474.040 380.996, 578.167 581.075, 680.939 657.671, 646.837 584.580, 423.362 "
fill = "white" stroke = "black"/>
</g>
<g>
<polygon points = "599.583, 400.792 584.580, 423.362 657.671, 646.837 791.075, 669.205 833.103, 623.981 835.632, 618.558 805.696, 500.000 656.789, 422.565 "
fill = "white" stroke = "black"/>
</g>
<g>
<polygon points = "54.162, 369.953 64.504, 367.433 78.934, 206.490 9.500, 244.663 "
fill = "white" stroke = "black"/>
</g>
<g>
<polygon points = "957.218, 368.157 969.915, 355.580 980.384, 175.274 959.334, 174.843 957.146, 175.326 920.214, 268.187 946.798, 360.127 "
fill = "white" stroke = "black"/>
</g>
<g>
<polygon points = "966.054, 854.144 1000.000, 859.129 1000.000, 720.448 976.587, 736.985 "
fill = "white" stroke = "black"/>
</g>
<g>
<polygon points = "680.287, 945.799 660.585, 937.296 521.680, 1000.000 667.132, 1000.000 "
fill = "white" stroke = "black"/>
</g>
<g>
<polygon points = "906.393, 1000.000 907.211, 963.760 902.652, 945.739 834.208, 957.166 826.766, 1000.000 "
fill = "white" stroke = "black"/>
</g>
<g>
<polygon points = "50.354, 648.417 0.000, 630.822 0.000, 779.755 21.703, 759.018 "
fill = "white" stroke = "black"/>
</g>
<g>
<polygon points = "0.000, 39.794 22.890, 63.993 82.636, 39.150 55.567, 0.000 0.000, 0.000 "
fill = "white" stroke = "black"/>
</g>
<g>
<polygon points = "677.707, 213.873 797.186, 266.792 848.099, 271.879 837.823, 160.094 677.699, 89.593 "
fill = "white" stroke = "black"/>
</g>
<g>
<polygon points = "249.592, 497.796 414.175, 427.835 404.507, 234.914 235.604, 415.374 "
fill = "white" stroke = "black"/>
</g>
<g>
<polygon points = "550.197, 718.486 537.792, 729.516 654.223, 893.176 655.126, 893.510 791.802, 853.942 788.339, 805.338 "
fill = "white" stroke = "black"/>
</g>
<g>
<polygon points = "89.579, 905.488 7.099, 982.360 97.533, 969.969 110.704, 924.316 94.145, 901.577 "
fill = "white" stroke = "black"/>
</g>
<g>
<polygon points = "807.065, 912.473 726.495, 944.728 791.160, 1000.000 826.766, 1000.000 834.208, 957.166 "
fill = "white" stroke = "black"/>
</g>
<g>
<polygon points = "154.620, 243.387 152.492, 243.309 77.864, 370.266 121.406, 400.716 146.791, 400.770 181.049, 362.227 189.211, 330.494 "
fill = "white" stroke = "black"/>
</g>
<g>
<polygon points = "362.034, 825.098 367.256, 794.483 235.119, 746.058 210.578, 855.790 218.364, 861.823 241.837, 869.576 "
fill = "white" stroke = "black"/>
</g>
<g>
<polygon points = "0.000, 497.513 44.621, 459.416 52.202, 372.309 0.000, 379.124 "
fill = "white" stroke = "black"/>
</g>
<g>
<polygon points = "925.701, 874.031 907.753, 890.593 908.189, 936.026 985.237, 943.092 949.677, 870.220 "
fill = "white" stroke = "black"/>
</g>
<g>
<polygon points = "45.934, 113.029 34.077, 147.614 78.000, 176.209 140.831, 139.172 115.459, 84.758 "
fill = "white" stroke = "black"/>
</g>
<g>
<polygon points = "150.288, 940.736 306.123, 953.813 241.837, 869.576 218.364, 861.823 "
fill = "white" stroke = "black"/>
</g>
<g>
<polygon points = "27.378, 885.856 89.579, 905.488 94.145, 901.577 94.979, 888.902 54.837, 826.662 25.148, 810.380 "
fill = "white" stroke = "black"/>
</g>
<g>
<polygon points = "219.235, 149.100 154.620, 243.387 189.211, 330.494 292.210, 227.391 223.402, 147.262 "
fill = "white" stroke = "black"/>
</g>
<g>
<polygon points = "961.845, 55.423 959.334, 174.843 980.384, 175.274 1000.000, 167.319 1000.000, 74.697 963.327, 53.439 "
fill = "white" stroke = "black"/>
</g>
<g>
<polygon points = "171.065, 37.989 71.245, 0.000 55.567, 0.000 82.636, 39.150 123.307, 71.036 166.770, 61.975 "
fill = "white" stroke = "black"/>
</g>
<g>
<polygon points = "504.612, 74.015 519.387, 0.000 458.832, 0.000 386.532, 59.869 487.139, 83.947 "
fill = "white" stroke = "black"/>
</g>
<g>
<polygon points = "573.034, 884.709 505.818, 1000.000 521.680, 1000.000 660.585, 937.296 655.126, 893.510 654.223, 893.176 573.435, 884.600 "
fill = "white" stroke = "black"/>
</g>
<g>
<polygon points = "499.189, 1000.000 458.270, 980.838 327.677, 954.179 313.120, 959.917 285.894, 1000.000 "
fill = "white" stroke = "black"/>
</g>
<g>
<polygon points = "44.621, 459.416 86.165, 535.492 86.842, 535.336 121.406, 400.716 77.864, 370.266 64.504, 367.433 54.162, 369.953 52.202, 372.309 "
fill = "white" stroke = "black"/>
</g>
<g>
<polygon points = "7.099, 982.360 0.000, 986.397 0.000, 1000.000 129.333, 1000.000 97.533, 969.969 "
fill = "white" stroke = "black"/>
</g>
<g>
<polygon points = "110.704, 924.316 147.479, 942.240 150.288, 940.736 218.364, 861.823 210.578, 855.790 140.227, 835.581 94.979, 888.902 94.145, 901.577 "
fill = "white" stroke = "black"/>
</g>
<g>
<polygon points = "886.379, 764.956 908.943, 777.449 955.024, 729.617 907.751, 644.021 867.776, 614.337 835.632, 618.558 833.103, 623.981 "
fill = "white" stroke = "black"/>
</g>
<g>
<polygon points = "226.040, 143.632 334.424, 123.485 363.238, 68.074 251.576, 70.868 210.604, 91.255 "
fill = "white" stroke = "black"/>
</g>
<g>
<polygon points = "147.479, 942.240 198.363, 1000.000 285.894, 1000.000 313.120, 959.917 306.123, 953.813 150.288, 940.736 "
fill = "white" stroke = "black"/>
</g>
<g>
<polygon points = "880.378, 593.469 867.776, 614.337 907.751, 644.021 971.342, 621.910 962.294, 505.037 "
fill = "white" stroke = "black"/>
</g>
<g>
<polygon points = "649.842, 0.000 642.784, 41.556 786.413, 74.205 772.046, 0.000 "
fill = "white" stroke = "black"/>
</g>
<g>
<polygon points = "959.334, 174.843 961.845, 55.423 910.503, 78.644 898.151, 141.553 957.146, 175.326 "
fill = "white" stroke = "black"/>
</g>
<g>
<polygon points = "22.890, 63.993 45.934, 113.029 115.459, 84.758 123.307, 71.036 82.636, 39.150 "
fill = "white" stroke = "black"/>
</g>
<g>
<polygon points = "71.245, 0.000 171.065, 37.989 236.331, 0.000 "
fill = "white" stroke = "black"/>
</g>
<g>
<polygon points = "827.134, 443.627 903.857, 415.772 946.798, 360.127 920.214, 268.187 853.476, 283.195 "
fill = "white" stroke = "black"/>
</g>
<g>
<polygon points = "726.495, 944.728 680.287, 945.799 667.132, 1000.000 791.160, 1000.000 "
fill = "white" stroke = "black"/>
</g>
<g>
<polygon points = "306.116, 0.000 372.194, 61.294 386.532, 59.869 458.832, 0.000 "
fill = "white" stroke = "black"/>
</g>
<g>
<polygon points = "581.075, 680.939 550.197, 718.486 788.339, 805.338 791.075, 669.205 657.671, 646.837 "
fill = "white" stroke = "black"/>
</g>
<g>
<polygon points = "949.677, 870.220 985.237, 943.092 1000.000, 954.523 1000.000, 859.129 966.054, 854.144 "
fill = "white" stroke = "black"/>
</g>
<g>
<polygon points = "146.534, 728.219 145.067, 728.435 54.837, 826.662 94.979, 888.902 140.227, 835.581 "
fill = "white" stroke = "black"/>
</g>
<g>
<polygon points = "907.211, 963.760 906.393, 1000.000 1000.000, 1000.000 1000.000, 980.001 "
fill = "white" stroke = "black"/>
</g>
<g>
<polygon points = "797.186, 266.792 656.789, 422.565 805.696, 500.000 827.134, 443.627 853.476, 283.195 848.099, 271.879 "
fill = "white" stroke = "black"/>
</g>
<g>
<polygon points = "810.262, 879.365 796.276, 857.831 791.802, 853.942 655.126, 893.510 660.585, 937.296 680.287, 945.799 726.495, 944.728 807.065, 912.473 "
fill = "white" stroke = "black"/>
</g>
<g>
<polygon points = "372.194, 61.294 306.116, 0.000 259.062, 0.000 251.576, 70.868 363.238, 68.074 "
fill = "white" stroke = "black"/>
</g>
<g>
<polygon points = "407.867, 220.497 427.409, 202.774 427.421, 192.420 334.424, 123.485 226.040, 143.632 223.402, 147.262 292.210, 227.391 "
fill = "white" stroke = "black"/>
</g>
<g>
<polygon points = "642.784, 41.556 649.842, 0.000 519.387, 0.000 504.612, 74.015 639.225, 49.440 "
fill = "white" stroke = "black"/>
</g>
<g>
<polygon points = "827.134, 443.627 805.696, 500.000 835.632, 618.558 867.776, 614.337 880.378, 593.469 903.857, 415.772 "
fill = "white" stroke = "black"/>
</g>
<g>
<polygon points = "796.276, 857.831 810.262, 879.365 907.753, 890.593 925.701, 874.031 908.943, 777.449 886.379, 764.956 "
fill = "white" stroke = "black"/>
</g>
<g>
<polygon points = "380.996, 578.167 276.752, 651.421 391.020, 762.607 391.992, 762.659 537.792, 729.516 550.197, 718.486 581.075, 680.939 "
fill = "white" stroke = "black"/>
</g>
<g>
<polygon points = "572.222, 320.431 599.583, 400.792 656.789, 422.565 797.186, 266.792 677.707, 213.873 "
fill = "white" stroke = "black"/>
</g>
<g>
<polygon points = "0.000, 535.860 63.022, 575.534 86.165, 535.492 44.621, 459.416 0.000, 497.513 "
fill = "white" stroke = "black"/>
</g>
<g>
<polygon points = "442.426, 888.546 573.034, 884.709 573.435, 884.600 391.992, 762.659 391.020, 762.607 367.256, 794.483 362.034, 825.098 378.186, 868.555 "
fill = "white" stroke = "black"/>
</g>
<g>
<polygon points = "220.862, 646.174 217.651, 638.200 187.234, 604.896 185.050, 604.273 88.949, 657.942 129.466, 725.702 145.067, 728.435 146.534, 728.219 189.483, 692.541 "
fill = "white" stroke = "black"/>
</g>
<g>
<polygon points = "154.620, 243.387 219.235, 149.100 140.831, 139.172 78.000, 176.209 83.749, 194.194 152.492, 243.309 "
fill = "white" stroke = "black"/>
</g>
<g>
<polygon points = "414.175, 427.835 439.627, 474.040 584.580, 423.362 599.583, 400.792 572.222, 320.431 507.663, 236.693 427.409, 202.774 407.867, 220.497 404.507, 234.914 "
fill = "white" stroke = "black"/>
</g>
<g>
<polygon points = "198.363, 1000.000 147.479, 942.240 110.704, 924.316 97.533, 969.969 129.333, 1000.000 "
fill = "white" stroke = "black"/>
</g>
<g>
<polygon points = "439.627, 474.040 414.175, 427.835 249.592, 497.796 217.651, 638.200 220.862, 646.174 276.752, 651.421 380.996, 578.167 "
fill = "white" stroke = "black"/>
</g>
<g>
<polygon points = "969.915, 355.580 957.218, 368.157 962.481, 504.451 1000.000, 485.584 1000.000, 364.456 "
fill = "white" stroke = "black"/>
</g>
<g>
<polygon points = "45.934, 113.029 22.890, 63.993 0.000, 39.794 0.000, 156.591 34.077, 147.614 "
fill = "white" stroke = "black"/>
</g>
<g>
<polygon points = "63.022, 575.534 0.000, 535.860 0.000, 630.822 50.354, 648.417 58.470, 640.600 "
fill = "white" stroke = "black"/>
</g>
<g>
<polygon points = "-0.000, 986.397 7.099, 982.360 89.579, 905.488 27.378, 885.856 0.000, 975.654 "
fill = "white" stroke = "black"/>
</g>
<g>
<polygon points = "573.034, 884.709 442.426, 888.546 458.270, 980.838 499.189, 1000.000 505.818, 1000.000 "
fill = "white" stroke = "black"/>
</g>
</svg>
